<svg id="visual" viewBox="0 0 900 675" width="900" height="675" xmlns="http://www.w3.org/2000/svg" xmlns:xlink="http://www.w3.org/1999/xlink" version="1.1"><rect x="0" y="0" width="900" height="675" fill="#002233"></rect><path d="M0 516L21.5 515C43 514 86 512 128.8 505.7C171.7 499.3 214.3 488.7 257.2 491.5C300 494.3 343 510.7 385.8 510.7C428.7 510.7 471.3 494.3 514.2 478.3C557 462.3 600 446.7 642.8 439.5C685.7 432.3 728.3 433.7 771.2 454.7C814 475.7 857 516.3 878.5 536.7L900 557L900 676L878.5 676C857 676 814 676 771.2 676C728.3 676 685.7 676 642.8 676C600 676 557 676 514.2 676C471.3 676 428.7 676 385.8 676C343 676 300 676 257.2 676C214.3 676 171.7 676 128.8 676C86 676 43 676 21.5 676L0 676Z" fill="#0055ff" stroke-linecap="round" stroke-linejoin="miter"></path></svg>