<svg id="visual" viewBox="0 0 540 960" width="540" height="960" xmlns="http://www.w3.org/2000/svg" xmlns:xlink="http://www.w3.org/1999/xlink" version="1.1"><rect x="0" y="0" width="540" height="960" fill="#aeaec5"></rect><g transform="translate(449.66474677451384 95.95867838319214)"><path d="M317.3 -448.2C463.7 -399.6 671.2 -400.4 795.5 -310C919.9 -219.5 961 -37.7 897.2 100.8C833.4 239.3 664.6 334.4 515.4 371.1C366.2 407.8 236.6 386.1 132.5 387.4C28.5 388.7 -50 413.1 -128.4 404.9C-206.8 396.7 -285.2 355.8 -345.9 294.7C-406.7 233.6 -449.8 152.2 -542.5 29.7C-635.2 -92.7 -777.4 -256.4 -740.2 -338.1C-703 -419.9 -486.4 -419.9 -333.1 -465.4C-179.9 -510.9 -89.9 -601.9 -2.3 -598.4C85.4 -594.9 170.8 -496.8 317.3 -448.2" fill="#0044a0"></path></g></svg>