<svg id="visual" viewBox="0 0 540 960" width="540" height="960" xmlns="http://www.w3.org/2000/svg" xmlns:xlink="http://www.w3.org/1999/xlink" version="1.1"><rect x="0" y="0" width="540" height="960" fill="#10161a"></rect><path d="M0 553L12.8 563.2C25.7 573.3 51.3 593.7 77 611.7C102.7 629.7 128.3 645.3 154 651.2C179.7 657 205.3 653 231.2 647.3C257 641.7 283 634.3 308.8 624.8C334.7 615.3 360.3 603.7 386 596.5C411.7 589.3 437.3 586.7 463 582.2C488.7 577.7 514.3 571.3 527.2 568.2L540 565L540 961L527.2 961C514.3 961 488.7 961 463 961C437.3 961 411.7 961 386 961C360.3 961 334.7 961 308.8 961C283 961 257 961 231.2 961C205.3 961 179.7 961 154 961C128.3 961 102.7 961 77 961C51.3 961 25.7 961 12.8 961L0 961Z" fill="#c46760"></path><path d="M0 632L12.8 645C25.7 658 51.3 684 77 695.7C102.7 707.3 128.3 704.7 154 694.2C179.7 683.7 205.3 665.3 231.2 663C257 660.7 283 674.3 308.8 674.2C334.7 674 360.3 660 386 648.2C411.7 636.3 437.3 626.7 463 617.3C488.7 608 514.3 599 527.2 594.5L540 590L540 961L527.2 961C514.3 961 488.7 961 463 961C437.3 961 411.7 961 386 961C360.3 961 334.7 961 308.8 961C283 961 257 961 231.2 961C205.3 961 179.7 961 154 961C128.3 961 102.7 961 77 961C51.3 961 25.7 961 12.8 961L0 961Z" fill="#c0575d"></path><path d="M0 648L12.8 659.8C25.7 671.7 51.3 695.3 77 695.2C102.7 695 128.3 671 154 658.5C179.7 646 205.3 645 231.2 645.2C257 645.3 283 646.7 308.8 646.7C334.7 646.7 360.3 645.3 386 653.8C411.7 662.3 437.3 680.7 463 685.3C488.7 690 514.3 681 527.2 676.5L540 672L540 961L527.2 961C514.3 961 488.7 961 463 961C437.3 961 411.7 961 386 961C360.3 961 334.7 961 308.8 961C283 961 257 961 231.2 961C205.3 961 179.7 961 154 961C128.3 961 102.7 961 77 961C51.3 961 25.7 961 12.8 961L0 961Z" fill="#bb465d"></path><path d="M0 746L12.8 738.8C25.7 731.7 51.3 717.3 77 719.7C102.7 722 128.3 741 154 746.7C179.7 752.3 205.3 744.7 231.2 738.7C257 732.7 283 728.3 308.8 732.7C334.7 737 360.3 750 386 747.8C411.7 745.7 437.3 728.3 463 723.3C488.7 718.3 514.3 725.7 527.2 729.3L540 733L540 961L527.2 961C514.3 961 488.7 961 463 961C437.3 961 411.7 961 386 961C360.3 961 334.7 961 308.8 961C283 961 257 961 231.2 961C205.3 961 179.7 961 154 961C128.3 961 102.7 961 77 961C51.3 961 25.7 961 12.8 961L0 961Z" fill="#b4345f"></path><path d="M0 724L12.8 728.7C25.7 733.3 51.3 742.7 77 751.2C102.7 759.7 128.3 767.3 154 769.3C179.7 771.3 205.3 767.7 231.2 760.8C257 754 283 744 308.8 738.2C334.7 732.3 360.3 730.7 386 729.8C411.7 729 437.3 729 463 725C488.7 721 514.3 713 527.2 709L540 705L540 961L527.2 961C514.3 961 488.7 961 463 961C437.3 961 411.7 961 386 961C360.3 961 334.7 961 308.8 961C283 961 257 961 231.2 961C205.3 961 179.7 961 154 961C128.3 961 102.7 961 77 961C51.3 961 25.7 961 12.8 961L0 961Z" fill="#ab1f63"></path><path d="M0 780L12.8 771C25.7 762 51.3 744 77 749.2C102.7 754.3 128.3 782.7 154 789.3C179.7 796 205.3 781 231.2 773.3C257 765.7 283 765.3 308.8 766C334.7 766.7 360.3 768.3 386 769.8C411.7 771.3 437.3 772.7 463 770.8C488.7 769 514.3 764 527.2 761.5L540 759L540 961L527.2 961C514.3 961 488.7 961 463 961C437.3 961 411.7 961 386 961C360.3 961 334.7 961 308.8 961C283 961 257 961 231.2 961C205.3 961 179.7 961 154 961C128.3 961 102.7 961 77 961C51.3 961 25.7 961 12.8 961L0 961Z" fill="#a00068"></path><path d="M0 805L12.8 809.7C25.7 814.3 51.3 823.7 77 819.8C102.7 816 128.3 799 154 796.2C179.7 793.3 205.3 804.7 231.2 812.2C257 819.7 283 823.3 308.8 824C334.7 824.7 360.3 822.3 386 820.7C411.7 819 437.3 818 463 815.2C488.7 812.3 514.3 807.7 527.2 805.3L540 803L540 961L527.2 961C514.3 961 488.7 961 463 961C437.3 961 411.7 961 386 961C360.3 961 334.7 961 308.8 961C283 961 257 961 231.2 961C205.3 961 179.7 961 154 961C128.3 961 102.7 961 77 961C51.3 961 25.7 961 12.8 961L0 961Z" fill="#92006e"></path><path d="M0 822L12.8 818.2C25.7 814.3 51.3 806.7 77 811.5C102.7 816.3 128.3 833.7 154 832.8C179.7 832 205.3 813 231.2 814.3C257 815.7 283 837.3 308.8 845.3C334.7 853.3 360.3 847.7 386 844.5C411.7 841.3 437.3 840.7 463 843.5C488.7 846.3 514.3 852.7 527.2 855.8L540 859L540 961L527.2 961C514.3 961 488.7 961 463 961C437.3 961 411.7 961 386 961C360.3 961 334.7 961 308.8 961C283 961 257 961 231.2 961C205.3 961 179.7 961 154 961C128.3 961 102.7 961 77 961C51.3 961 25.7 961 12.8 961L0 961Z" fill="#800076"></path><path d="M0 846L12.8 844.2C25.7 842.3 51.3 838.7 77 837.5C102.7 836.3 128.3 837.7 154 846.5C179.7 855.3 205.3 871.7 231.2 870.3C257 869 283 850 308.8 848.8C334.7 847.7 360.3 864.3 386 873.2C411.7 882 437.3 883 463 877.2C488.7 871.3 514.3 858.7 527.2 852.3L540 846L540 961L527.2 961C514.3 961 488.7 961 463 961C437.3 961 411.7 961 386 961C360.3 961 334.7 961 308.8 961C283 961 257 961 231.2 961C205.3 961 179.7 961 154 961C128.3 961 102.7 961 77 961C51.3 961 25.7 961 12.8 961L0 961Z" fill="#69007e"></path><path d="M0 872L12.8 871.2C25.7 870.3 51.3 868.7 77 869C102.7 869.3 128.3 871.7 154 872.8C179.7 874 205.3 874 231.2 874.2C257 874.3 283 874.7 308.8 881.2C334.7 887.7 360.3 900.3 386 898.5C411.7 896.7 437.3 880.3 463 878.3C488.7 876.3 514.3 888.7 527.2 894.8L540 901L540 961L527.2 961C514.3 961 488.7 961 463 961C437.3 961 411.7 961 386 961C360.3 961 334.7 961 308.8 961C283 961 257 961 231.2 961C205.3 961 179.7 961 154 961C128.3 961 102.7 961 77 961C51.3 961 25.7 961 12.8 961L0 961Z" fill="#4a0086"></path><path d="M0 912L12.8 910.8C25.7 909.7 51.3 907.3 77 911.5C102.7 915.7 128.3 926.3 154 929.3C179.7 932.3 205.3 927.7 231.2 924.8C257 922 283 921 308.8 923.2C334.7 925.3 360.3 930.7 386 929.8C411.7 929 437.3 922 463 916.7C488.7 911.3 514.3 907.7 527.2 905.8L540 904L540 961L527.2 961C514.3 961 488.7 961 463 961C437.3 961 411.7 961 386 961C360.3 961 334.7 961 308.8 961C283 961 257 961 231.2 961C205.3 961 179.7 961 154 961C128.3 961 102.7 961 77 961C51.3 961 25.7 961 12.8 961L0 961Z" fill="#04008d"></path></svg>